<?xml version="1.0" encoding="UTF-8" standalone="no"?>
<!DOCTYPE svg PUBLIC "-//W3C//DTD SVG 1.1//EN"
 "http://www.w3.org/Graphics/SVG/1.1/DTD/svg11.dtd">
<!-- Generated by graphviz version 2.50.0 (0)
 -->
<!-- Title: unix Pages: 1 -->
<svg width="1860pt" height="420pt"
 viewBox="0.00 0.00 1859.84 419.79" xmlns="http://www.w3.org/2000/svg" xmlns:xlink="http://www.w3.org/1999/xlink">
<g id="graph0" class="graph" transform="scale(1 1) rotate(0) translate(4 415.79)">
<title>unix</title>
<polygon fill="white" stroke="transparent" points="-4,4 -4,-415.79 1855.84,-415.79 1855.84,4 -4,4"/>
<!-- node_1 -->
<g id="node1" class="node">
<title>node_1</title>
<polygon fill="#9ac0cd" stroke="#9ac0cd" points="912,-411.79 826,-411.79 826,-375.79 912,-375.79 912,-411.79"/>
<text text-anchor="middle" x="869" y="-389.39" font-family="Times,serif" font-size="18.00">Env_type</text>
</g>
<!-- node_2 -->
<g id="node2" class="node">
<title>node_2</title>
<ellipse fill="#f2f2f2" stroke="#f2f2f2" cx="649" cy="-319.99" rx="118.59" ry="19.6"/>
<text text-anchor="middle" x="649" y="-315.59" font-family="Times,serif" font-size="18.00" fill="#b3b3b3">Information_seeking</text>
</g>
<!-- node_1&#45;&gt;node_2 -->
<g id="edge2" class="edge">
<title>node_1&#45;&gt;node_2</title>
<path fill="none" stroke="black" d="M825.8,-378.69C792.83,-367.94 746.98,-352.97 710.23,-340.98"/>
<polygon fill="black" stroke="black" points="711.21,-337.61 700.61,-337.84 709.03,-344.27 711.21,-337.61"/>
</g>
<!-- node_50 -->
<g id="node4" class="node">
<title>node_50</title>
<ellipse fill="#b2dfee" stroke="#b2dfee" cx="869" cy="-319.99" rx="82.96" ry="19.6"/>
<text text-anchor="middle" x="869" y="-315.59" font-family="Times,serif" font-size="18.00">Collaboration</text>
</g>
<!-- node_1&#45;&gt;node_50 -->
<g id="edge3" class="edge">
<title>node_1&#45;&gt;node_50</title>
<path fill="none" stroke="black" d="M869,-375.78C869,-368.11 869,-358.84 869,-350.12"/>
<polygon fill="black" stroke="black" points="872.5,-349.91 869,-339.91 865.5,-349.91 872.5,-349.91"/>
</g>
<!-- node_95 -->
<g id="node5" class="node">
<title>node_95</title>
<ellipse fill="#f2f2f2" stroke="#f2f2f2" cx="1055" cy="-319.99" rx="85.62" ry="19.6"/>
<text text-anchor="middle" x="1055" y="-315.59" font-family="Times,serif" font-size="18.00" fill="#b3b3b3">AppleStealing</text>
</g>
<!-- node_1&#45;&gt;node_95 -->
<g id="edge5" class="edge">
<title>node_1&#45;&gt;node_95</title>
<path fill="none" stroke="black" d="M912.14,-376.14C939.33,-365.65 974.59,-352.03 1003.28,-340.96"/>
<polygon fill="black" stroke="black" points="1004.67,-344.18 1012.74,-337.31 1002.15,-337.65 1004.67,-344.18"/>
</g>
<!-- node_2_fold -->
<g id="node3" class="node">
<title>node_2_fold</title>
<polygon fill="white" stroke="transparent" points="676,-264.2 622,-264.2 622,-223.2 676,-223.2 676,-264.2"/>
<text text-anchor="middle" x="649" y="-236.2" font-family="Times,serif" font-size="30.00" fill="#b3b3b3">...</text>
</g>
<!-- node_2&#45;&gt;node_2_fold -->
<g id="edge1" class="edge">
<title>node_2&#45;&gt;node_2_fold</title>
<path fill="none" stroke="#b3b3b3" d="M649,-299.86C649,-292.1 649,-282.95 649,-274.36"/>
<polygon fill="#b3b3b3" stroke="#b3b3b3" points="652.5,-274.28 649,-264.28 645.5,-274.28 652.5,-274.28"/>
</g>
<!-- node_51 -->
<g id="node7" class="node">
<title>node_51</title>
<polygon fill="#9ac0cd" stroke="#9ac0cd" points="908,-261.7 830,-261.7 830,-225.7 908,-225.7 908,-261.7"/>
<text text-anchor="middle" x="869" y="-239.3" font-family="Times,serif" font-size="18.00">Problem</text>
</g>
<!-- node_50&#45;&gt;node_51 -->
<g id="edge6" class="edge">
<title>node_50&#45;&gt;node_51</title>
<path fill="none" stroke="black" d="M869,-299.86C869,-291.46 869,-281.43 869,-272.24"/>
<polygon fill="black" stroke="black" points="872.5,-271.99 869,-261.99 865.5,-271.99 872.5,-271.99"/>
</g>
<!-- node_95_fold -->
<g id="node6" class="node">
<title>node_95_fold</title>
<polygon fill="white" stroke="transparent" points="1082,-264.2 1028,-264.2 1028,-223.2 1082,-223.2 1082,-264.2"/>
<text text-anchor="middle" x="1055" y="-236.2" font-family="Times,serif" font-size="30.00" fill="#b3b3b3">...</text>
</g>
<!-- node_95&#45;&gt;node_95_fold -->
<g id="edge4" class="edge">
<title>node_95&#45;&gt;node_95_fold</title>
<path fill="none" stroke="#b3b3b3" d="M1055,-299.86C1055,-292.1 1055,-282.95 1055,-274.36"/>
<polygon fill="#b3b3b3" stroke="#b3b3b3" points="1058.5,-274.28 1055,-264.28 1051.5,-274.28 1058.5,-274.28"/>
</g>
<!-- node_52 -->
<g id="node8" class="node">
<title>node_52</title>
<ellipse fill="lightgray" stroke="lightgray" cx="188" cy="-167.4" rx="43.68" ry="19.6"/>
<text text-anchor="middle" x="188" y="-163" font-family="Times,serif" font-size="18.00">Boxes</text>
</g>
<!-- node_51&#45;&gt;node_52 -->
<g id="edge7" class="edge">
<title>node_51&#45;&gt;node_52</title>
<path fill="none" stroke="black" d="M829.94,-238.43C714.09,-225.8 372.29,-188.5 240.58,-174.13"/>
<polygon fill="black" stroke="black" points="240.67,-170.62 230.35,-173.02 239.91,-177.58 240.67,-170.62"/>
</g>
<!-- node_58 -->
<g id="node9" class="node">
<title>node_58</title>
<ellipse fill="lightgray" stroke="lightgray" cx="438" cy="-167.4" rx="57.97" ry="19.6"/>
<text text-anchor="middle" x="438" y="-163" font-family="Times,serif" font-size="18.00">Switches</text>
</g>
<!-- node_51&#45;&gt;node_58 -->
<g id="edge8" class="edge">
<title>node_51&#45;&gt;node_58</title>
<path fill="none" stroke="black" d="M829.99,-235.97C754.67,-222.99 588.73,-194.38 498.8,-178.88"/>
<polygon fill="black" stroke="black" points="499.2,-175.39 488.75,-177.14 498.01,-182.29 499.2,-175.39"/>
</g>
<!-- node_64 -->
<g id="node10" class="node">
<title>node_64</title>
<ellipse fill="lightgray" stroke="lightgray" cx="688" cy="-167.4" rx="67.76" ry="19.6"/>
<text text-anchor="middle" x="688" y="-163" font-family="Times,serif" font-size="18.00">Generators</text>
</g>
<!-- node_51&#45;&gt;node_64 -->
<g id="edge9" class="edge">
<title>node_51&#45;&gt;node_64</title>
<path fill="none" stroke="black" d="M829.73,-226.57C802.08,-215.22 764.91,-199.97 735.58,-187.93"/>
<polygon fill="black" stroke="black" points="736.54,-184.54 725.96,-183.98 733.88,-191.01 736.54,-184.54"/>
</g>
<!-- node_70 -->
<g id="node11" class="node">
<title>node_70</title>
<ellipse fill="lightgray" stroke="lightgray" cx="869" cy="-167.4" rx="48.58" ry="19.6"/>
<text text-anchor="middle" x="869" y="-163" font-family="Times,serif" font-size="18.00">Marble</text>
</g>
<!-- node_51&#45;&gt;node_70 -->
<g id="edge10" class="edge">
<title>node_51&#45;&gt;node_70</title>
<path fill="none" stroke="black" d="M869,-225.46C869,-217.18 869,-207.02 869,-197.58"/>
<polygon fill="black" stroke="black" points="872.5,-197.36 869,-187.36 865.5,-197.36 872.5,-197.36"/>
</g>
<!-- node_76 -->
<g id="node12" class="node">
<title>node_76</title>
<ellipse fill="lightgray" stroke="lightgray" cx="1063" cy="-167.4" rx="71.34" ry="19.6"/>
<text text-anchor="middle" x="1063" y="-163" font-family="Times,serif" font-size="18.00">MarblePass</text>
</g>
<!-- node_51&#45;&gt;node_76 -->
<g id="edge11" class="edge">
<title>node_51&#45;&gt;node_76</title>
<path fill="none" stroke="black" d="M908.26,-227.66C938.59,-216.04 980.77,-199.89 1013.43,-187.38"/>
<polygon fill="black" stroke="black" points="1014.71,-190.64 1022.8,-183.79 1012.21,-184.1 1014.71,-190.64"/>
</g>
<!-- node_83 -->
<g id="node13" class="node">
<title>node_83</title>
<ellipse fill="lightgray" stroke="lightgray" cx="1433" cy="-167.4" rx="73.58" ry="19.6"/>
<text text-anchor="middle" x="1433" y="-163" font-family="Times,serif" font-size="18.00">MarblePush</text>
</g>
<!-- node_51&#45;&gt;node_83 -->
<g id="edge12" class="edge">
<title>node_51&#45;&gt;node_83</title>
<path fill="none" stroke="black" d="M908.21,-237.53C1001.27,-225.27 1236.73,-194.25 1358.11,-178.26"/>
<polygon fill="black" stroke="black" points="1358.61,-181.73 1368.07,-176.95 1357.7,-174.79 1358.61,-181.73"/>
</g>
<!-- node_89 -->
<g id="node14" class="node">
<title>node_89</title>
<ellipse fill="#b2dfee" stroke="#b2dfee" cx="1667" cy="-167.4" rx="67.76" ry="19.6"/>
<text text-anchor="middle" x="1667" y="-163" font-family="Times,serif" font-size="18.00">LeverDoor</text>
</g>
<!-- node_51&#45;&gt;node_89 -->
<g id="edge13" class="edge">
<title>node_51&#45;&gt;node_89</title>
<path fill="none" stroke="black" d="M908.09,-236.99C938.32,-232.73 981.25,-227.01 1019,-223.2 1239.34,-200.91 1295.6,-208.88 1516,-187.2 1542.46,-184.59 1571.45,-181.13 1596.9,-177.89"/>
<polygon fill="black" stroke="black" points="1597.36,-181.36 1606.83,-176.61 1596.46,-174.41 1597.36,-181.36"/>
</g>
<!-- node_53 -->
<g id="node15" class="node">
<title>node_53</title>
<polygon fill="#999999" stroke="#999999" points="126,-111.6 72,-111.6 72,-75.6 126,-75.6 126,-111.6"/>
<text text-anchor="middle" x="99" y="-89.2" font-family="Times,serif" font-size="18.00">Role</text>
</g>
<!-- node_52&#45;&gt;node_53 -->
<g id="edge14" class="edge">
<title>node_52&#45;&gt;node_53</title>
<path fill="none" stroke="black" d="M167.36,-149.74C155.73,-140.37 141.02,-128.5 128.23,-118.18"/>
<polygon fill="black" stroke="black" points="130.13,-115.21 120.15,-111.66 125.73,-120.66 130.13,-115.21"/>
</g>
<!-- node_56 -->
<g id="node16" class="node">
<title>node_56</title>
<polygon fill="#999999" stroke="#999999" points="223.5,-111.6 152.5,-111.6 152.5,-75.6 223.5,-75.6 223.5,-111.6"/>
<text text-anchor="middle" x="188" y="-89.2" font-family="Times,serif" font-size="18.00">Version</text>
</g>
<!-- node_52&#45;&gt;node_56 -->
<g id="edge15" class="edge">
<title>node_52&#45;&gt;node_56</title>
<path fill="none" stroke="black" d="M188,-147.53C188,-139.62 188,-130.26 188,-121.63"/>
<polygon fill="black" stroke="black" points="191.5,-121.62 188,-111.62 184.5,-121.62 191.5,-121.62"/>
</g>
<!-- node_59 -->
<g id="node17" class="node">
<title>node_59</title>
<polygon fill="#999999" stroke="#999999" points="376,-111.6 322,-111.6 322,-75.6 376,-75.6 376,-111.6"/>
<text text-anchor="middle" x="349" y="-89.2" font-family="Times,serif" font-size="18.00">Role</text>
</g>
<!-- node_58&#45;&gt;node_59 -->
<g id="edge16" class="edge">
<title>node_58&#45;&gt;node_59</title>
<path fill="none" stroke="black" d="M416,-148.65C404.51,-139.38 390.32,-127.93 377.95,-117.95"/>
<polygon fill="black" stroke="black" points="380.11,-115.2 370.13,-111.65 375.72,-120.65 380.11,-115.2"/>
</g>
<!-- node_62 -->
<g id="node18" class="node">
<title>node_62</title>
<polygon fill="#999999" stroke="#999999" points="473.5,-111.6 402.5,-111.6 402.5,-75.6 473.5,-75.6 473.5,-111.6"/>
<text text-anchor="middle" x="438" y="-89.2" font-family="Times,serif" font-size="18.00">Version</text>
</g>
<!-- node_58&#45;&gt;node_62 -->
<g id="edge17" class="edge">
<title>node_58&#45;&gt;node_62</title>
<path fill="none" stroke="black" d="M438,-147.53C438,-139.62 438,-130.26 438,-121.63"/>
<polygon fill="black" stroke="black" points="441.5,-121.62 438,-111.62 434.5,-121.62 441.5,-121.62"/>
</g>
<!-- node_65 -->
<g id="node19" class="node">
<title>node_65</title>
<polygon fill="#999999" stroke="#999999" points="626,-111.6 572,-111.6 572,-75.6 626,-75.6 626,-111.6"/>
<text text-anchor="middle" x="599" y="-89.2" font-family="Times,serif" font-size="18.00">Role</text>
</g>
<!-- node_64&#45;&gt;node_65 -->
<g id="edge18" class="edge">
<title>node_64&#45;&gt;node_65</title>
<path fill="none" stroke="black" d="M666,-148.65C654.51,-139.38 640.32,-127.93 627.95,-117.95"/>
<polygon fill="black" stroke="black" points="630.11,-115.2 620.13,-111.65 625.72,-120.65 630.11,-115.2"/>
</g>
<!-- node_68 -->
<g id="node20" class="node">
<title>node_68</title>
<polygon fill="#999999" stroke="#999999" points="723.5,-111.6 652.5,-111.6 652.5,-75.6 723.5,-75.6 723.5,-111.6"/>
<text text-anchor="middle" x="688" y="-89.2" font-family="Times,serif" font-size="18.00">Version</text>
</g>
<!-- node_64&#45;&gt;node_68 -->
<g id="edge19" class="edge">
<title>node_64&#45;&gt;node_68</title>
<path fill="none" stroke="black" d="M688,-147.53C688,-139.62 688,-130.26 688,-121.63"/>
<polygon fill="black" stroke="black" points="691.5,-121.62 688,-111.62 684.5,-121.62 691.5,-121.62"/>
</g>
<!-- node_71 -->
<g id="node21" class="node">
<title>node_71</title>
<polygon fill="#999999" stroke="#999999" points="876,-111.6 822,-111.6 822,-75.6 876,-75.6 876,-111.6"/>
<text text-anchor="middle" x="849" y="-89.2" font-family="Times,serif" font-size="18.00">Role</text>
</g>
<!-- node_70&#45;&gt;node_71 -->
<g id="edge20" class="edge">
<title>node_70&#45;&gt;node_71</title>
<path fill="none" stroke="black" d="M863.75,-147.53C861.52,-139.53 858.88,-130.06 856.45,-121.35"/>
<polygon fill="black" stroke="black" points="859.8,-120.31 853.74,-111.62 853.05,-122.19 859.8,-120.31"/>
</g>
<!-- node_74 -->
<g id="node22" class="node">
<title>node_74</title>
<polygon fill="#999999" stroke="#999999" points="969.5,-111.6 898.5,-111.6 898.5,-75.6 969.5,-75.6 969.5,-111.6"/>
<text text-anchor="middle" x="934" y="-89.2" font-family="Times,serif" font-size="18.00">Version</text>
</g>
<!-- node_70&#45;&gt;node_74 -->
<g id="edge21" class="edge">
<title>node_70&#45;&gt;node_74</title>
<path fill="none" stroke="black" d="M885.07,-148.65C893.14,-139.74 903.04,-128.8 911.82,-119.1"/>
<polygon fill="black" stroke="black" points="914.45,-121.41 918.57,-111.65 909.26,-116.71 914.45,-121.41"/>
</g>
<!-- node_77 -->
<g id="node23" class="node">
<title>node_77</title>
<polygon fill="#999999" stroke="#999999" points="1090,-111.6 1036,-111.6 1036,-75.6 1090,-75.6 1090,-111.6"/>
<text text-anchor="middle" x="1063" y="-89.2" font-family="Times,serif" font-size="18.00">Role</text>
</g>
<!-- node_76&#45;&gt;node_77 -->
<g id="edge22" class="edge">
<title>node_76&#45;&gt;node_77</title>
<path fill="none" stroke="black" d="M1063,-147.53C1063,-139.62 1063,-130.26 1063,-121.63"/>
<polygon fill="black" stroke="black" points="1066.5,-121.62 1063,-111.62 1059.5,-121.62 1066.5,-121.62"/>
</g>
<!-- node_80 -->
<g id="node24" class="node">
<title>node_80</title>
<polygon fill="#999999" stroke="#999999" points="1223.5,-111.6 1152.5,-111.6 1152.5,-75.6 1223.5,-75.6 1223.5,-111.6"/>
<text text-anchor="middle" x="1188" y="-89.2" font-family="Times,serif" font-size="18.00">Version</text>
</g>
<!-- node_76&#45;&gt;node_80 -->
<g id="edge23" class="edge">
<title>node_76&#45;&gt;node_80</title>
<path fill="none" stroke="black" d="M1092.94,-149.2C1109.79,-139.52 1131.03,-127.32 1149.15,-116.91"/>
<polygon fill="black" stroke="black" points="1151.38,-119.67 1158.3,-111.66 1147.89,-113.6 1151.38,-119.67"/>
</g>
<!-- node_84 -->
<g id="node25" class="node">
<title>node_84</title>
<polygon fill="#999999" stroke="#999999" points="1460,-111.6 1406,-111.6 1406,-75.6 1460,-75.6 1460,-111.6"/>
<text text-anchor="middle" x="1433" y="-89.2" font-family="Times,serif" font-size="18.00">Role</text>
</g>
<!-- node_83&#45;&gt;node_84 -->
<g id="edge24" class="edge">
<title>node_83&#45;&gt;node_84</title>
<path fill="none" stroke="black" d="M1433,-147.53C1433,-139.62 1433,-130.26 1433,-121.63"/>
<polygon fill="black" stroke="black" points="1436.5,-121.62 1433,-111.62 1429.5,-121.62 1436.5,-121.62"/>
</g>
<!-- node_87 -->
<g id="node26" class="node">
<title>node_87</title>
<polygon fill="#999999" stroke="#999999" points="1589.5,-111.6 1518.5,-111.6 1518.5,-75.6 1589.5,-75.6 1589.5,-111.6"/>
<text text-anchor="middle" x="1554" y="-89.2" font-family="Times,serif" font-size="18.00">Version</text>
</g>
<!-- node_83&#45;&gt;node_87 -->
<g id="edge25" class="edge">
<title>node_83&#45;&gt;node_87</title>
<path fill="none" stroke="black" d="M1461.98,-149.2C1478.3,-139.52 1498.85,-127.32 1516.39,-116.91"/>
<polygon fill="black" stroke="black" points="1518.44,-119.77 1525.25,-111.66 1514.87,-113.75 1518.44,-119.77"/>
</g>
<!-- node_90 -->
<g id="node27" class="node">
<title>node_90</title>
<polygon fill="#9ac0cd" stroke="#9ac0cd" points="1694,-111.6 1640,-111.6 1640,-75.6 1694,-75.6 1694,-111.6"/>
<text text-anchor="middle" x="1667" y="-89.2" font-family="Times,serif" font-size="18.00">Role</text>
</g>
<!-- node_89&#45;&gt;node_90 -->
<g id="edge26" class="edge">
<title>node_89&#45;&gt;node_90</title>
<path fill="none" stroke="black" d="M1667,-147.53C1667,-139.62 1667,-130.26 1667,-121.63"/>
<polygon fill="black" stroke="black" points="1670.5,-121.62 1667,-111.62 1663.5,-121.62 1670.5,-121.62"/>
</g>
<!-- node_93 -->
<g id="node28" class="node">
<title>node_93</title>
<polygon fill="#9ac0cd" stroke="#9ac0cd" points="1823.5,-111.6 1752.5,-111.6 1752.5,-75.6 1823.5,-75.6 1823.5,-111.6"/>
<text text-anchor="middle" x="1788" y="-89.2" font-family="Times,serif" font-size="18.00">Version</text>
</g>
<!-- node_89&#45;&gt;node_93 -->
<g id="edge27" class="edge">
<title>node_89&#45;&gt;node_93</title>
<path fill="none" stroke="black" d="M1695.68,-149.38C1711.98,-139.71 1732.6,-127.47 1750.21,-117.02"/>
<polygon fill="black" stroke="black" points="1752.3,-119.85 1759.11,-111.74 1748.73,-113.83 1752.3,-119.85"/>
</g>
<!-- node_54 -->
<g id="node29" class="node">
<title>node_54</title>
<ellipse fill="lightgray" stroke="lightgray" cx="27" cy="-19.8" rx="27" ry="19.6"/>
<text text-anchor="middle" x="27" y="-15.4" font-family="Times,serif" font-size="18.00">A</text>
</g>
<!-- node_53&#45;&gt;node_54 -->
<g id="edge28" class="edge">
<title>node_53&#45;&gt;node_54</title>
<path fill="none" stroke="black" d="M81.94,-75.58C72.3,-65.97 60.13,-53.84 49.7,-43.43"/>
<polygon fill="black" stroke="black" points="52.02,-40.81 42.47,-36.22 47.08,-45.76 52.02,-40.81"/>
</g>
<!-- node_55 -->
<g id="node30" class="node">
<title>node_55</title>
<ellipse fill="lightgray" stroke="lightgray" cx="99" cy="-19.8" rx="27" ry="19.6"/>
<text text-anchor="middle" x="99" y="-15.4" font-family="Times,serif" font-size="18.00">B</text>
</g>
<!-- node_53&#45;&gt;node_55 -->
<g id="edge29" class="edge">
<title>node_53&#45;&gt;node_55</title>
<path fill="none" stroke="black" d="M99,-75.58C99,-67.92 99,-58.65 99,-49.93"/>
<polygon fill="black" stroke="black" points="102.5,-49.71 99,-39.71 95.5,-49.71 102.5,-49.71"/>
</g>
<!-- node_57 -->
<g id="node31" class="node">
<title>node_57</title>
<ellipse fill="lightgray" stroke="lightgray" cx="188" cy="-19.8" rx="43.68" ry="19.6"/>
<text text-anchor="middle" x="188" y="-15.4" font-family="Times,serif" font-size="18.00">Social</text>
</g>
<!-- node_56&#45;&gt;node_57 -->
<g id="edge30" class="edge">
<title>node_56&#45;&gt;node_57</title>
<path fill="none" stroke="black" d="M188,-75.58C188,-67.92 188,-58.65 188,-49.93"/>
<polygon fill="black" stroke="black" points="191.5,-49.71 188,-39.71 184.5,-49.71 191.5,-49.71"/>
</g>
<!-- node_60 -->
<g id="node32" class="node">
<title>node_60</title>
<ellipse fill="lightgray" stroke="lightgray" cx="277" cy="-19.8" rx="27" ry="19.6"/>
<text text-anchor="middle" x="277" y="-15.4" font-family="Times,serif" font-size="18.00">A</text>
</g>
<!-- node_59&#45;&gt;node_60 -->
<g id="edge31" class="edge">
<title>node_59&#45;&gt;node_60</title>
<path fill="none" stroke="black" d="M331.94,-75.58C322.3,-65.97 310.13,-53.84 299.7,-43.43"/>
<polygon fill="black" stroke="black" points="302.02,-40.81 292.47,-36.22 297.08,-45.76 302.02,-40.81"/>
</g>
<!-- node_61 -->
<g id="node33" class="node">
<title>node_61</title>
<ellipse fill="lightgray" stroke="lightgray" cx="349" cy="-19.8" rx="27" ry="19.6"/>
<text text-anchor="middle" x="349" y="-15.4" font-family="Times,serif" font-size="18.00">B</text>
</g>
<!-- node_59&#45;&gt;node_61 -->
<g id="edge32" class="edge">
<title>node_59&#45;&gt;node_61</title>
<path fill="none" stroke="black" d="M349,-75.58C349,-67.92 349,-58.65 349,-49.93"/>
<polygon fill="black" stroke="black" points="352.5,-49.71 349,-39.71 345.5,-49.71 352.5,-49.71"/>
</g>
<!-- node_63 -->
<g id="node34" class="node">
<title>node_63</title>
<ellipse fill="lightgray" stroke="lightgray" cx="438" cy="-19.8" rx="43.68" ry="19.6"/>
<text text-anchor="middle" x="438" y="-15.4" font-family="Times,serif" font-size="18.00">Social</text>
</g>
<!-- node_62&#45;&gt;node_63 -->
<g id="edge33" class="edge">
<title>node_62&#45;&gt;node_63</title>
<path fill="none" stroke="black" d="M438,-75.58C438,-67.92 438,-58.65 438,-49.93"/>
<polygon fill="black" stroke="black" points="441.5,-49.71 438,-39.71 434.5,-49.71 441.5,-49.71"/>
</g>
<!-- node_66 -->
<g id="node35" class="node">
<title>node_66</title>
<ellipse fill="lightgray" stroke="lightgray" cx="527" cy="-19.8" rx="27" ry="19.6"/>
<text text-anchor="middle" x="527" y="-15.4" font-family="Times,serif" font-size="18.00">A</text>
</g>
<!-- node_65&#45;&gt;node_66 -->
<g id="edge34" class="edge">
<title>node_65&#45;&gt;node_66</title>
<path fill="none" stroke="black" d="M581.94,-75.58C572.3,-65.97 560.13,-53.84 549.7,-43.43"/>
<polygon fill="black" stroke="black" points="552.02,-40.81 542.47,-36.22 547.08,-45.76 552.02,-40.81"/>
</g>
<!-- node_67 -->
<g id="node36" class="node">
<title>node_67</title>
<ellipse fill="lightgray" stroke="lightgray" cx="599" cy="-19.8" rx="27" ry="19.6"/>
<text text-anchor="middle" x="599" y="-15.4" font-family="Times,serif" font-size="18.00">B</text>
</g>
<!-- node_65&#45;&gt;node_67 -->
<g id="edge35" class="edge">
<title>node_65&#45;&gt;node_67</title>
<path fill="none" stroke="black" d="M599,-75.58C599,-67.92 599,-58.65 599,-49.93"/>
<polygon fill="black" stroke="black" points="602.5,-49.71 599,-39.71 595.5,-49.71 602.5,-49.71"/>
</g>
<!-- node_69 -->
<g id="node37" class="node">
<title>node_69</title>
<ellipse fill="lightgray" stroke="lightgray" cx="688" cy="-19.8" rx="43.68" ry="19.6"/>
<text text-anchor="middle" x="688" y="-15.4" font-family="Times,serif" font-size="18.00">Social</text>
</g>
<!-- node_68&#45;&gt;node_69 -->
<g id="edge36" class="edge">
<title>node_68&#45;&gt;node_69</title>
<path fill="none" stroke="black" d="M688,-75.58C688,-67.92 688,-58.65 688,-49.93"/>
<polygon fill="black" stroke="black" points="691.5,-49.71 688,-39.71 684.5,-49.71 691.5,-49.71"/>
</g>
<!-- node_72 -->
<g id="node38" class="node">
<title>node_72</title>
<ellipse fill="lightgray" stroke="lightgray" cx="777" cy="-19.8" rx="27" ry="19.6"/>
<text text-anchor="middle" x="777" y="-15.4" font-family="Times,serif" font-size="18.00">A</text>
</g>
<!-- node_71&#45;&gt;node_72 -->
<g id="edge37" class="edge">
<title>node_71&#45;&gt;node_72</title>
<path fill="none" stroke="black" d="M831.94,-75.58C822.3,-65.97 810.13,-53.84 799.7,-43.43"/>
<polygon fill="black" stroke="black" points="802.02,-40.81 792.47,-36.22 797.08,-45.76 802.02,-40.81"/>
</g>
<!-- node_73 -->
<g id="node39" class="node">
<title>node_73</title>
<ellipse fill="lightgray" stroke="lightgray" cx="849" cy="-19.8" rx="27" ry="19.6"/>
<text text-anchor="middle" x="849" y="-15.4" font-family="Times,serif" font-size="18.00">B</text>
</g>
<!-- node_71&#45;&gt;node_73 -->
<g id="edge38" class="edge">
<title>node_71&#45;&gt;node_73</title>
<path fill="none" stroke="black" d="M849,-75.58C849,-67.92 849,-58.65 849,-49.93"/>
<polygon fill="black" stroke="black" points="852.5,-49.71 849,-39.71 845.5,-49.71 852.5,-49.71"/>
</g>
<!-- node_75 -->
<g id="node40" class="node">
<title>node_75</title>
<ellipse fill="lightgray" stroke="lightgray" cx="938" cy="-19.8" rx="43.68" ry="19.6"/>
<text text-anchor="middle" x="938" y="-15.4" font-family="Times,serif" font-size="18.00">Social</text>
</g>
<!-- node_74&#45;&gt;node_75 -->
<g id="edge39" class="edge">
<title>node_74&#45;&gt;node_75</title>
<path fill="none" stroke="black" d="M934.95,-75.58C935.37,-67.92 935.89,-58.65 936.38,-49.93"/>
<polygon fill="black" stroke="black" points="939.88,-49.89 936.95,-39.71 932.9,-49.5 939.88,-49.89"/>
</g>
<!-- node_78 -->
<g id="node41" class="node">
<title>node_78</title>
<ellipse fill="lightgray" stroke="lightgray" cx="1027" cy="-19.8" rx="27" ry="19.6"/>
<text text-anchor="middle" x="1027" y="-15.4" font-family="Times,serif" font-size="18.00">A</text>
</g>
<!-- node_77&#45;&gt;node_78 -->
<g id="edge40" class="edge">
<title>node_77&#45;&gt;node_78</title>
<path fill="none" stroke="black" d="M1054.47,-75.58C1050.29,-67.25 1045.16,-57.01 1040.47,-47.66"/>
<polygon fill="black" stroke="black" points="1043.58,-46.06 1035.97,-38.69 1037.33,-49.2 1043.58,-46.06"/>
</g>
<!-- node_79 -->
<g id="node42" class="node">
<title>node_79</title>
<ellipse fill="lightgray" stroke="lightgray" cx="1099" cy="-19.8" rx="27" ry="19.6"/>
<text text-anchor="middle" x="1099" y="-15.4" font-family="Times,serif" font-size="18.00">B</text>
</g>
<!-- node_77&#45;&gt;node_79 -->
<g id="edge41" class="edge">
<title>node_77&#45;&gt;node_79</title>
<path fill="none" stroke="black" d="M1071.53,-75.58C1075.71,-67.25 1080.84,-57.01 1085.53,-47.66"/>
<polygon fill="black" stroke="black" points="1088.67,-49.2 1090.03,-38.69 1082.42,-46.06 1088.67,-49.2"/>
</g>
<!-- node_81 -->
<g id="node43" class="node">
<title>node_81</title>
<ellipse fill="lightgray" stroke="lightgray" cx="1188" cy="-19.8" rx="43.68" ry="19.6"/>
<text text-anchor="middle" x="1188" y="-15.4" font-family="Times,serif" font-size="18.00">Social</text>
</g>
<!-- node_80&#45;&gt;node_81 -->
<g id="edge42" class="edge">
<title>node_80&#45;&gt;node_81</title>
<path fill="none" stroke="black" d="M1188,-75.58C1188,-67.92 1188,-58.65 1188,-49.93"/>
<polygon fill="black" stroke="black" points="1191.5,-49.71 1188,-39.71 1184.5,-49.71 1191.5,-49.71"/>
</g>
<!-- node_82 -->
<g id="node44" class="node">
<title>node_82</title>
<ellipse fill="lightgray" stroke="lightgray" cx="1301" cy="-19.8" rx="50.82" ry="19.6"/>
<text text-anchor="middle" x="1301" y="-15.4" font-family="Times,serif" font-size="18.00">Asocial</text>
</g>
<!-- node_80&#45;&gt;node_82 -->
<g id="edge43" class="edge">
<title>node_80&#45;&gt;node_82</title>
<path fill="none" stroke="black" d="M1214.78,-75.58C1230.2,-65.79 1249.75,-53.37 1266.33,-42.83"/>
<polygon fill="black" stroke="black" points="1268.63,-45.52 1275.19,-37.2 1264.87,-39.61 1268.63,-45.52"/>
</g>
<!-- node_85 -->
<g id="node45" class="node">
<title>node_85</title>
<ellipse fill="lightgray" stroke="lightgray" cx="1397" cy="-19.8" rx="27" ry="19.6"/>
<text text-anchor="middle" x="1397" y="-15.4" font-family="Times,serif" font-size="18.00">A</text>
</g>
<!-- node_84&#45;&gt;node_85 -->
<g id="edge44" class="edge">
<title>node_84&#45;&gt;node_85</title>
<path fill="none" stroke="black" d="M1424.47,-75.58C1420.29,-67.25 1415.16,-57.01 1410.47,-47.66"/>
<polygon fill="black" stroke="black" points="1413.58,-46.06 1405.97,-38.69 1407.33,-49.2 1413.58,-46.06"/>
</g>
<!-- node_86 -->
<g id="node46" class="node">
<title>node_86</title>
<ellipse fill="lightgray" stroke="lightgray" cx="1469" cy="-19.8" rx="27" ry="19.6"/>
<text text-anchor="middle" x="1469" y="-15.4" font-family="Times,serif" font-size="18.00">B</text>
</g>
<!-- node_84&#45;&gt;node_86 -->
<g id="edge45" class="edge">
<title>node_84&#45;&gt;node_86</title>
<path fill="none" stroke="black" d="M1441.53,-75.58C1445.71,-67.25 1450.84,-57.01 1455.53,-47.66"/>
<polygon fill="black" stroke="black" points="1458.67,-49.2 1460.03,-38.69 1452.42,-46.06 1458.67,-49.2"/>
</g>
<!-- node_88 -->
<g id="node47" class="node">
<title>node_88</title>
<ellipse fill="lightgray" stroke="lightgray" cx="1558" cy="-19.8" rx="43.68" ry="19.6"/>
<text text-anchor="middle" x="1558" y="-15.4" font-family="Times,serif" font-size="18.00">Social</text>
</g>
<!-- node_87&#45;&gt;node_88 -->
<g id="edge46" class="edge">
<title>node_87&#45;&gt;node_88</title>
<path fill="none" stroke="black" d="M1554.95,-75.58C1555.37,-67.92 1555.89,-58.65 1556.38,-49.93"/>
<polygon fill="black" stroke="black" points="1559.88,-49.89 1556.95,-39.71 1552.9,-49.5 1559.88,-49.89"/>
</g>
<!-- node_91 -->
<g id="node48" class="node">
<title>node_91</title>
<ellipse fill="lightgray" stroke="lightgray" cx="1647" cy="-19.8" rx="27" ry="19.6"/>
<text text-anchor="middle" x="1647" y="-15.4" font-family="Times,serif" font-size="18.00">A</text>
</g>
<!-- node_90&#45;&gt;node_91 -->
<g id="edge47" class="edge">
<title>node_90&#45;&gt;node_91</title>
<path fill="none" stroke="black" d="M1662.26,-75.58C1660.06,-67.69 1657.39,-58.09 1654.9,-49.15"/>
<polygon fill="black" stroke="black" points="1658.25,-48.15 1652.2,-39.46 1651.51,-50.03 1658.25,-48.15"/>
</g>
<!-- node_92 -->
<g id="node49" class="node">
<title>node_92</title>
<ellipse fill="#b2dfee" stroke="#b2dfee" cx="1719" cy="-19.8" rx="27" ry="19.6"/>
<text text-anchor="middle" x="1719" y="-15.4" font-family="Times,serif" font-size="18.00">B</text>
</g>
<!-- node_90&#45;&gt;node_92 -->
<g id="edge48" class="edge">
<title>node_90&#45;&gt;node_92</title>
<path fill="none" stroke="black" d="M1679.32,-75.58C1685.73,-66.73 1693.7,-55.74 1700.8,-45.93"/>
<polygon fill="black" stroke="black" points="1703.73,-47.84 1706.77,-37.69 1698.06,-43.74 1703.73,-47.84"/>
</g>
<!-- node_94 -->
<g id="node50" class="node">
<title>node_94</title>
<ellipse fill="#b2dfee" stroke="#b2dfee" cx="1808" cy="-19.8" rx="43.68" ry="19.6"/>
<text text-anchor="middle" x="1808" y="-15.4" font-family="Times,serif" font-size="18.00">Social</text>
</g>
<!-- node_93&#45;&gt;node_94 -->
<g id="edge49" class="edge">
<title>node_93&#45;&gt;node_94</title>
<path fill="none" stroke="black" d="M1792.74,-75.58C1794.92,-67.75 1797.57,-58.24 1800.05,-49.35"/>
<polygon fill="black" stroke="black" points="1803.42,-50.29 1802.73,-39.71 1796.68,-48.41 1803.42,-50.29"/>
</g>
</g>
</svg>
